

        <svg xmlns="http://www.w3.org/2000/svg" xmlns:xlink="http://www.w3.org/1999/xlink" version="1.1" width="3200" 
        height="1264.4639113471994" viewBox="0 0 3200 1264.4639113471994">
			<rect fill="#060606" width="3200" height="1264.4639113471994"/>
			<g transform="scale(10) translate(10, 10)">
				<defs id="SvgjsDefs1020"></defs><g id="SvgjsG1021" featureKey="nameFeature-0" transform="matrix(1.4717064348082285,0,0,1.4717064348082285,0,-7.181926166758962)" fill="#4cbb17"><path d="M2.84 36.16 l-2.84 -2.72 l5.6 -27.16 l4.56 0.92 l-4.88 23.52 l8.28 -2.2 l1.2 4.48 z M33.36 27.08 l-3.4 0.32 l1.52 13.16 l-4.6 0.52 l-1.52 -13.24 l-7.92 0.72 l-3.64 6.84 l-4.08 -2.16 l2.24 -4.24 l-0.44 -4.52 l3 -0.28 l8.92 -16.68 l4.32 0.84 l1.68 14.44 l3.48 -0.36 z M20.080000000000002 23.68 l4.72 -0.48 l-0.8 -6.92 z M53.28 11.719999999999999 l-14 11.88 l8.88 5.8 l-2.56 3.88 l-9.2 -6.04 l-1.4 8.04 l-4.56 -0.8 l3.8 -21.8 l4.56 0.76 l-0.92 5.24 l12.4 -10.48 z M53.12 29.36 l7.8 -1.36 l0.8 4.6 l-15.76 2.68 l-0.76 -4.56 l2.92 -0.52 l1.48 -6.16 l-0.72 -4.2 l1.8 -0.32 l0.84 -3.36 l-3 0.52 l-0.76 -4.6 l18.28 -3.08 l0.76 4.56 l-10.32 1.76 l-0.8 3.36 l3.68 -0.64 l0.76 4.6 l-5.64 0.96 z M95.47999999999999 39.4 l-3.44 3.12 l-13.72 -15.08 l-2.16 8.92 l-4.48 -1.08 l4.4 -18.48 c-0.6 0.24 -1.2 0.48 -1.84 0.76 l-1.92 -4.2 c10.2 -4.64 14.8 -2.64 16.64 -1 c1.84 1.6 2.48 4 1.72 6.44 c-1.12 3.68 -5.04 5.44 -8.24 6.32 z M81.2 15.280000000000001 l-1.36 5.68 c2.6 -0.52 5.84 -1.64 6.4 -3.52 c0.16 -0.48 0.2 -1.12 -0.32 -1.6 c-0.72 -0.64 -2.28 -0.96 -4.72 -0.56 z M95.56 31.72 l-4.56 -0.72 l4.44 -26.12 l4.56 0.76 z M98.4 38 l-2.2 -4.08 c0.44 -0.28 1 -0.6 1.64 -0.96 l2.32 -22.48 l1.72 -0.32 c1 -0.2 9.8 -1.64 13.8 2.28 c1.12 1.12 2.36 3.12 1.88 6.36 c-1.52 9.4 -17.36 18.2 -19.16 19.2 z M104.44 14.48 l-1.6 15.2 c4.6 -3.28 9.52 -7.72 10.12 -11.6 c0.24 -1.56 -0.32 -2.12 -0.52 -2.32 c-1.44 -1.4 -5.32 -1.52 -8 -1.28 z M119.92 29.36 l7.8 -1.36 l0.8 4.6 l-15.76 2.68 l-0.76 -4.56 l2.92 -0.52 l1.48 -6.16 l-0.72 -4.2 l1.8 -0.32 l0.84 -3.36 l-3 0.52 l-0.76 -4.6 l18.28 -3.08 l0.76 4.56 l-10.32 1.76 l-0.8 3.36 l3.68 -0.64 l0.76 4.6 l-5.64 0.96 z M157.72 16.96 c0 5.8 -7.48 9.44 -12.8 11.32 l-1.88 8.56 l-4.52 -0.96 l1.44 -6.68 l-0.96 -4 c0.64 -0.12 1.28 -0.32 1.96 -0.52 l2.04 -9.32 c-0.6 0.16 -1.16 0.32 -1.72 0.56 l-1.6 -4.36 c2.4 -0.88 10.56 -3.44 15.24 -0.16 c1.84 1.28 2.8 3.2 2.8 5.56 z M146.08 22.8 c3.8 -1.64 7 -3.8 7 -5.84 c0 -1.08 -0.4 -1.48 -0.8 -1.76 c-0.92 -0.64 -2.44 -0.88 -4.36 -0.76 z M180 39.4 l-3.44 3.12 l-13.72 -15.08 l-2.16 8.92 l-4.48 -1.08 l4.4 -18.48 c-0.6 0.24 -1.2 0.48 -1.84 0.76 l-1.92 -4.2 c10.2 -4.64 14.8 -2.64 16.64 -1 c1.84 1.6 2.48 4 1.72 6.44 c-1.12 3.68 -5.04 5.44 -8.24 6.32 z M165.72 15.280000000000001 l-1.36 5.68 c2.6 -0.52 5.84 -1.64 6.4 -3.52 c0.16 -0.48 0.2 -1.12 -0.32 -1.6 c-0.72 -0.64 -2.28 -0.96 -4.72 -0.56 z M180.64000000000001 37.48 c-1.8 0 -3.44 -0.8 -4.64 -2.24 c-2 -2.36 -2.64 -6.24 -1.84 -10.64 c1.36 -7.48 5.68 -12.6 10.4 -12.52 c2.2 0.04 4.04 0.88 5.32 2.44 c1.88 2.32 2.44 6.08 1.56 10.92 l0 0 c-1.4 7.92 -6.48 12.04 -10.8 12.04 z M184.44000000000003 16.72 c-1.72 0 -4.6 2.68 -5.72 8.72 c-0.64 3.52 0.04 5.88 0.84 6.84 c0.4 0.48 0.8 0.56 1.08 0.56 c2 0 5.24 -2.56 6.24 -8.2 c0.6 -3.32 0.36 -6 -0.6 -7.16 c-0.28 -0.36 -0.72 -0.72 -1.8 -0.76 l-0.04 0 z M182.84 48.2 l-1.44 -4.4 c4.68 -1.56 18 -7.44 17.84 -13.56 c-0.08 -2.16 -1.44 -3.28 -3.6 -4.96 c-2.16 -1.64 -4.84 -3.68 -4.84 -7.48 c0 -6.4 7.08 -9.44 11.24 -10.24 l0.84 4.56 l-0.4 -2.28 l0.44 2.28 c-0.08 0.04 -7.48 1.56 -7.48 5.68 c0 1.44 1.08 2.32 3 3.8 c2.24 1.72 5.28 4.04 5.4 8.48 c0.36 10.68 -18.8 17.4 -21 18.12 z"></path></g><g id="SvgjsG1022" featureKey="sloganFeature-0" transform="matrix(0.8420182433125689,0,0,0.8420182433125689,8.462390191663625,67.20617948529461)" fill="#ffffff"><path d="M7.6953 5.888999999999999 c2.7637 0 4.4824 2.0508 4.4824 4.5605 c0 2.5684 -1.7188 4.4922 -4.4824 4.4922 l-2.9395 0 l0 5.0586 l-2.9297 0 l0 -14.111 l5.8691 0 z M7.207 12.4902 c1.4648 0 2.1484 -0.81055 2.1484 -2.0801 c0 -1.2207 -0.68359 -2.0703 -2.1484 -2.0703 l-2.4512 0 l0 4.1504 l2.4512 0 z M24.9755421875 20 l-3.6719 -6.2109 l-0.84961 0 l0 6.2109 l-2.9297 0 l0 -14.111 l5.1172 0 c3.1934 0 4.541 1.8848 4.541 4.2188 c0 1.8945 -1.0742 3.125 -2.9883 3.5352 l4.248 6.3574 l-3.4668 0 z M20.4541421875 8.32 l0 3.3691 l1.7285 0 c1.5625 0 2.1973 -0.66406 2.1973 -1.6797 c0 -1.0059 -0.63477 -1.6895 -2.1973 -1.6895 l-1.7285 0 z M41.660390625 8.467 l-5.2344 0 l0 3.2031 l4.6387 0 l0 2.5488 l-4.6387 0 l0 3.1934 l5.2344 0 l0 2.5879 l-8.1836 0 l0 -14.111 l8.1836 0 l0 2.5781 z M63.735304687500005 20 l-2.9199 0 l-0.92773 -10.635 l-3.5742 10.635 l-1.8945 0 l-3.5742 -10.635 l-0.9375 10.635 l-2.9297 0 l1.1816 -14.111 l4.1797 0 l3.0078 8.8574 l3.0469 -8.8574 l4.1797 0 z M69.687528125 20 l0 -14.111 l2.9297 0 l0 14.111 l-2.9297 0 z M87.3293359375 8.467 l-5.2344 0 l0 3.2031 l4.6387 0 l0 2.5488 l-4.6387 0 l0 3.1934 l5.2344 0 l0 2.5879 l-8.1836 0 l0 -14.111 l8.1836 0 l0 2.5781 z M100.68355 20 l-3.6719 -6.2109 l-0.84961 0 l0 6.2109 l-2.9297 0 l0 -14.111 l5.1172 0 c3.1934 0 4.541 1.8848 4.541 4.2188 c0 1.8945 -1.0742 3.125 -2.9883 3.5352 l4.248 6.3574 l-3.4668 0 z M96.16215 8.32 l0 3.3691 l1.7285 0 c1.5625 0 2.1973 -0.66406 2.1973 -1.6797 c0 -1.0059 -0.63477 -1.6895 -2.1973 -1.6895 l-1.7285 0 z M125.449453125 5.888999999999999 l0 2.5781 l-3.3496 0 l0 11.533 l-2.9004 0 l0 -11.533 l-3.3691 0 l0 -2.5781 l9.6191 0 z M138.0028859375 20 l-3.6719 -6.2109 l-0.84961 0 l0 6.2109 l-2.9297 0 l0 -14.111 l5.1172 0 c3.1934 0 4.541 1.8848 4.541 4.2188 c0 1.8945 -1.0742 3.125 -2.9883 3.5352 l4.248 6.3574 l-3.4668 0 z M133.4814859375 8.32 l0 3.3691 l1.7285 0 c1.5625 0 2.1973 -0.66406 2.1973 -1.6797 c0 -1.0059 -0.63477 -1.6895 -2.1973 -1.6895 l-1.7285 0 z M155.947734375 20 l-1.0254 -2.9102 l-5.9277 0 l-1.0254 2.9102 l-2.998 0 l5.1953 -14.111 l3.584 0 l5.1953 14.111 l-2.998 0 z M149.853534375 14.6387 l4.209 0 l-2.0996 -5.9863 z M173.5890234375 5.888999999999999 l2.9199 0 l0 14.111 l-3.3887 0 l-6.25 -10.088 l0 10.088 l-2.9199 0 l0 -14.111 l3.3496 0 l6.2891 10.029 l0 -10.029 z M187.734403125 20.19531 c-3.0273 0 -5.3906 -1.4551 -5.8203 -4.1016 l3.0273 -0.69336 c0.19531 1.582 1.3574 2.4023 2.9102 2.4023 c1.1914 0 2.1387 -0.52734 2.1289 -1.7188 c-0.0097656 -1.3281 -1.5723 -1.748 -3.291 -2.2754 c-2.0703 -0.64453 -4.2871 -1.4063 -4.2871 -4.0039 c0 -2.627 2.1484 -4.1113 4.9805 -4.1113 c2.4805 0 4.9805 1.0059 5.5469 3.7109 l-2.832 0.70313 c-0.26367 -1.4063 -1.2109 -2.0215 -2.5391 -2.0215 c-1.1816 0 -2.1875 0.48828 -2.1875 1.6504 c0 1.084 1.3867 1.4453 2.9883 1.9238 c2.1289 0.64453 4.6484 1.4648 4.6484 4.2773 c0 2.998 -2.5098 4.2578 -5.2734 4.2578 z M204.4677609375 5.888999999999999 c2.7637 0 4.4824 2.0508 4.4824 4.5605 c0 2.5684 -1.7188 4.4922 -4.4824 4.4922 l-2.9395 0 l0 5.0586 l-2.9297 0 l0 -14.111 l5.8691 0 z M203.9794609375 12.4902 c1.4648 0 2.1484 -0.81055 2.1484 -2.0801 c0 -1.2207 -0.68359 -2.0703 -2.1484 -2.0703 l-2.4512 0 l0 4.1504 l2.4512 0 z M220.546903125 20.19531 c-4.1504 0 -7.2168 -2.832 -7.2168 -7.2559 c0 -4.4336 3.0664 -7.2461 7.2168 -7.2461 c4.1406 0 7.207 2.8125 7.207 7.2461 c0 4.4238 -3.0664 7.2559 -7.207 7.2559 z M220.546903125 17.5098 c2.4316 0 4.2969 -1.709 4.2969 -4.5703 c0 -2.8516 -1.8652 -4.5508 -4.2969 -4.5508 s-4.2969 1.6992 -4.2969 4.5508 c0 2.8613 1.8652 4.5703 4.2969 4.5703 z M240.7860890625 20 l-3.6719 -6.2109 l-0.84961 0 l0 6.2109 l-2.9297 0 l0 -14.111 l5.1172 0 c3.1934 0 4.541 1.8848 4.541 4.2188 c0 1.8945 -1.0742 3.125 -2.9883 3.5352 l4.248 6.3574 l-3.4668 0 z M236.2646890625 8.32 l0 3.3691 l1.7285 0 c1.5625 0 2.1973 -0.66406 2.1973 -1.6797 c0 -1.0059 -0.63477 -1.6895 -2.1973 -1.6895 l-1.7285 0 z M257.4709375 5.888999999999999 l0 2.5781 l-3.3496 0 l0 11.533 l-2.9004 0 l0 -11.533 l-3.3691 0 l0 -2.5781 l9.6191 0 z M272.0170703125 20 l-1.0254 -2.9102 l-5.9277 0 l-1.0254 2.9102 l-2.998 0 l5.1953 -14.111 l3.584 0 l5.1953 14.111 l-2.998 0 z M265.9228703125 14.6387 l4.209 0 l-2.0996 -5.9863 z M288.203359375 5.888999999999999 l0 2.5781 l-3.3496 0 l0 11.533 l-2.9004 0 l0 -11.533 l-3.3691 0 l0 -2.5781 l9.6191 0 z M293.3056921875 20 l0 -14.111 l2.9297 0 l0 14.111 l-2.9297 0 z M309.0137 20.19531 c-4.1504 0 -7.2168 -2.832 -7.2168 -7.2559 c0 -4.4336 3.0664 -7.2461 7.2168 -7.2461 c4.1406 0 7.207 2.8125 7.207 7.2461 c0 4.4238 -3.0664 7.2559 -7.207 7.2559 z M309.0137 17.5098 c2.4316 0 4.2969 -1.709 4.2969 -4.5703 c0 -2.8516 -1.8652 -4.5508 -4.2969 -4.5508 s-4.2969 1.6992 -4.2969 4.5508 c0 2.8613 1.8652 4.5703 4.2969 4.5703 z M331.4405859375 5.888999999999999 l2.9199 0 l0 14.111 l-3.3887 0 l-6.25 -10.088 l0 10.088 l-2.9199 0 l0 -14.111 l3.3496 0 l6.2891 10.029 l0 -10.029 z"></path></g><g id="SvgjsG1023" featureKey="sloganFeature-1" transform="matrix(0.8420182433125689,0,0,0.8420182433125689,82.07900038829031,89.22241356066533)" fill="#ffffff"><path d="M5.6934 10.8496 c3.6719 0 5.4199 1.5625 5.4199 4.4531 c0 2.998 -2.002 4.9023 -4.9707 4.9023 c-2.7441 0 -5.0488 -1.6699 -5.0488 -4.4531 c0 -0.22461 0.019531 -0.45898 0.058594 -0.70313 l2.793 -0.12695 c-0.039063 0.23438 -0.068359 0.43945 -0.068359 0.625 c0 1.4648 1.0645 2.0801 2.207 2.0801 c1.4551 0 2.2168 -0.89844 2.2168 -2.2168 c0 -1.3379 -0.74219 -2.2266 -3.0664 -2.2266 l-3.7012 0 l0.58594 -7.2949 l8.3301 0 l0 2.5098 l-5.8008 0 l-0.18555 2.4512 l1.2305 0 z M15.9131015625 5.888999999999999 l9.9316 0 l0 2.168 l-6.377 11.943 l-3.1836 0 l6.3965 -11.611 l-6.7676 0 l0 -2.5 z M35.605503125 20.19531 c-3.5645 0 -5.0586 -1.748 -5.0586 -5.2344 l2.8809 -0.12695 c0 1.8945 0.2832 2.9102 2.1777 2.9102 c1.4941 0 2.2461 -0.87891 2.2461 -2.0508 c0 -1.377 -0.83984 -2.0508 -2.0508 -2.0508 l-0.54688 0 l0 -2.1875 l0.50781 0 c0.9375 0 1.6309 -0.73242 1.6309 -1.7578 c0 -1.0449 -0.78125 -1.582 -1.8457 -1.582 c-1.5137 0 -1.7578 1.1328 -1.7578 2.2852 l-2.8418 -0.13672 c0 -2.998 1.748 -4.5703 4.5703 -4.5703 c2.627 0 4.4922 1.6504 4.4922 3.7598 c0 1.5332 -0.98633 2.5391 -1.7773 2.8906 c1.2012 0.3418 2.4805 1.377 2.4805 3.4668 c0 2.6563 -2.0215 4.3848 -5.1074 4.3848 z M57.480459375 17.4902 l6.0156 0 l0 2.5098 l-9.9512 0 l0 -2.1191 l5.6152 -5.7324 c0.9082 -0.91797 1.2207 -1.7188 1.2207 -2.4316 c0 -1.1035 -0.69336 -1.7871 -1.9238 -1.7871 c-1.1621 0 -2.002 0.5957 -2.002 2.2754 l0 1.0449 l-2.8027 -0.2832 l0 -0.70313 c0 -2.9785 1.8945 -4.5898 4.7852 -4.5898 c2.7148 0 4.7168 1.4746 4.7168 4.0625 c0 1.4551 -0.625 2.5391 -1.8555 3.8184 z M73.3837609375 20.19531 c-3.252 0 -5.1172 -2.3828 -5.1172 -7.2559 c0 -4.8828 1.8555 -7.2461 5.1172 -7.2461 c3.2422 0 5.1074 2.3633 5.1074 7.2461 c0 4.873 -1.875 7.2559 -5.1074 7.2559 z M73.3837609375 17.6562 c1.416 0 2.2949 -1.4258 2.2949 -4.7168 c0 -3.3203 -0.9082 -4.7168 -2.2949 -4.7168 c-1.416 0 -2.3047 1.3965 -2.3047 4.7168 c0 3.291 0.86914 4.7168 2.3047 4.7168 z M93.3885625 15.2637 c0.019531 2.8809 -2.4316 4.9219 -5.2344 4.9219 c-2.9199 0 -5.1758 -2.1191 -5.1758 -4.9121 c0 -1.1133 0.36133 -2.2168 1.25 -3.4473 l4.3945 -5.9375 l3.1934 0 l-3.6621 4.7754 c0.21484 -0.029297 0.42969 -0.039063 0.64453 -0.039063 c2.4121 0 4.5703 1.8066 4.5898 4.6387 z M90.6347625 15.1953 c0.019531 -1.4746 -0.99609 -2.5293 -2.5293 -2.5293 c-1.4844 0 -2.4707 1.0938 -2.5 2.4902 c-0.019531 1.4844 0.9375 2.5 2.4707 2.5 c1.4941 0 2.5488 -1.0059 2.5586 -2.4609 z M111.13281875 5.702999999999999 c2.9199 0 5.1855 2.1094 5.1855 4.9121 c0 1.1035 -0.36133 2.2168 -1.2598 3.4375 l-4.3945 5.9473 l-3.2031 0 l3.6523 -4.7754 c-0.21484 0.029297 -0.41992 0.039063 -0.63477 0.039063 c-2.3926 0 -4.5605 -1.8164 -4.5703 -4.6387 c-0.019531 -2.8906 2.4219 -4.9219 5.2246 -4.9219 z M113.67191875 10.7227 c0.029297 -1.4746 -0.92773 -2.4902 -2.4609 -2.4902 c-1.4844 0 -2.5488 1.0059 -2.5586 2.4609 c-0.019531 1.4648 0.99609 2.5293 2.5293 2.5293 c1.4941 0 2.4707 -1.0938 2.4902 -2.5 z M131.4018203125 14.814499999999999 l0 2.5098 l-1.6992 0 l0 2.6758 l-2.8125 0 l0 -2.6758 l-6.4941 0 l0 -2.5195 l5 -8.916 l4.3066 0 l0 8.9258 l1.6992 0 z M123.0029203125 14.814499999999999 l3.8867 0 l0 -7.2363 z M140.791021875 5.702999999999999 c2.9199 0 5.1855 2.1094 5.1855 4.9121 c0 1.1035 -0.36133 2.2168 -1.2598 3.4375 l-4.3945 5.9473 l-3.2031 0 l3.6523 -4.7754 c-0.21484 0.029297 -0.41992 0.039063 -0.63477 0.039063 c-2.3926 0 -4.5605 -1.8164 -4.5703 -4.6387 c-0.019531 -2.8906 2.4219 -4.9219 5.2246 -4.9219 z M143.330121875 10.7227 c0.029297 -1.4746 -0.92773 -2.4902 -2.4609 -2.4902 c-1.4844 0 -2.5488 1.0059 -2.5586 2.4609 c-0.019531 1.4648 0.99609 2.5293 2.5293 2.5293 c1.4941 0 2.4707 -1.0938 2.4902 -2.5 z M155.6201234375 5.702999999999999 c2.9199 0 5.1855 2.1094 5.1855 4.9121 c0 1.1035 -0.36133 2.2168 -1.2598 3.4375 l-4.3945 5.9473 l-3.2031 0 l3.6523 -4.7754 c-0.21484 0.029297 -0.41992 0.039063 -0.63477 0.039063 c-2.3926 0 -4.5605 -1.8164 -4.5703 -4.6387 c-0.019531 -2.8906 2.4219 -4.9219 5.2246 -4.9219 z M158.1592234375 10.7227 c0.029297 -1.4746 -0.92773 -2.4902 -2.4609 -2.4902 c-1.4844 0 -2.5488 1.0059 -2.5586 2.4609 c-0.019531 1.4648 0.99609 2.5293 2.5293 2.5293 c1.4941 0 2.4707 -1.0938 2.4902 -2.5 z"></path></g>
			</g>
		</svg>

